<svg width="16" height="30" fill="none" xmlns="http://www.w3.org/2000/svg"><path d="M12.302 6.037c1 0 1.998 0 2.697-.312.4-.834.6-1.98.6-3.125-.2 0-.1-.313-.2-.417 0-.208-.3-.208-.3-.417-.3-.208-.5-.416-.699-.625-.7-.208-1.399-.312-2.198-.52-.799 0-1.898-.105-2.597.104-2.597 0-3.996 1.145-5.294 2.5 0 .104 0 .208-.1.208-.6 1.667-.1 3.75-.2 5.833.1.417.1 1.042.2 1.458-.999.313-2.198.417-3.396.521-.3.313-.2 1.146-.2 1.77.1.626.3 1.147.4 1.667.2.209.599.417.798.521.1 0 .1.104.1.104.5.313 1.499 0 2.298.105-.1 2.083.3 4.062 0 5.937 0 .312.3.417.2.833 0 1.042-.1 2.084.2 2.813-.3.52-.5 1.041-.4 1.875.1 0 .1.208.1.312-.1.52.6.208.5.73.199.52-.4.207-.4.52v.938c.5.312 1.498.208 2.297.208.9-.417 2.198-.521 2.797-1.25.5.208.9 0 1.199-.209 0-.312.3-.312.2-.729 0-.312-.2-.52-.1-.937v-3.02c-.2-2.396 0-5.105-.3-7.5.9-.105 1.898-.105 2.597-.417.4-.521.4-1.25.5-1.98.2-.208.2-.624.2-1.04.2-.21.1-.73.1-1.147-.1-.625-.2-1.354-.8-1.458-.899-.208-1.998.625-2.996.313 0-1.146-.3-2.396 0-3.542.799-.208 1.498-.417 2.197-.625zm-3.796 5c.1.312.3.52.4.729.1 0 .2 0 .2.104 1.198.104 2.197-.104 3.096-.312 0 1.041-.3 1.77-.5 2.604-.698 0-1.498.312-1.997.208-.3.208-.4.52-.6.73 0 .416.1.52 0 .832-.2.105-.1.626-.2.834v1.562c.1.313-.099.313-.099.521v3.646c-.1.312.1.312.1.52v3.125c.1.313-.1.834.1.938-.1.417-.4 0-.8.104-.499.104-.898.417-1.498.417.1-.417.3-.625.3-1.146 0-.417-.4-.313-.5-.52.2-.626.6-1.147.7-1.876.2-.52.699-1.354.3-1.875-.5-.104-.5.313-.8.417 0 .104 0 .208-.1.208 0 .104 0 .209-.1.209 0 .104-.2.104 0 0 0-.105 0-.209.1-.209 0-.104 0-.208.1-.208v-.313c.4-.625.7-1.25.8-2.083.2-.312.3-.729.399-1.041.2-.313.3-.938.1-1.25-.5 0-.8.312-.9.729-.299-.209.2-.417.1-.73.1-.208.2-.624.3-.833.2-.416.6-1.354 0-1.666-.4 0-.599.208-.699.52-.2.209-.4.417-.5.73-.399-.104-.1-.73-.2-1.146-.099-.521.1-.938 0-1.25-.598-.833-1.997-.104-3.196-.313-.1-.312-.2-1.041-.1-1.25 1-.104 2.498.209 3.197-.208 0-.104 0-.208.1-.208.1-.73-.3-1.042-.5-1.459.2-.833 0-2.083.1-3.124.2-.105.3-.417.5-.625.1-1.042.699-1.563.699-2.604-.3 0-.6-.105-.6.208-.299-.104-.399.52-.499.208-.1-.52.2-.625.3-1.041.6-.417 1.199-.834 1.898-1.25 1.698-.209 4.595-.417 6.093.208.1.625-.3.937-.2 1.562h-1.498c-1.099.209-1.998.73-2.997 1.042-.2.104-.3.313-.5.417 0 .416-.199.625-.299 1.041-.3 1.459-.1 2.709-.1 4.167z"/></svg>